<svg version="1.1" id="Layer_1" xmlns="http://www.w3.org/2000/svg" xmlns:xlink="http://www.w3.org/1999/xlink" x="0px" y="0px" width="55px" viewBox="0 0 647.5 701" style="enable-background:new 0 0 647.5 701;" xml:space="preserve">
<style type="text/css">
	.st0{fill:#FFFFFF;}
	@media only screen and (max-width: 767px) {
	    svg {
	        width: 35px!important;
	    }
	}
</style>
<path class="st0" d="M96.3,110.9c15.9,6.6,20.5,22.2,20.3,40.4c-0.2,16.2-0.4,32.3-0.9,48.5c-0.2,4.4-1.4,8.9-2.7,13.2
	c-5.5,17.6-17.2,26.3-35.6,26.4c-24.7,0.2-49.3,0-74,0c-1,0-2-0.1-3.4-0.2V3.3C1.7,3.2,3.4,3,5.2,3c22.7,0,45.3,0,68,0
	c2.3,0,4.7,0,7,0.3c16.4,1.3,27.2,10.2,30.2,26.3c1.7,9.2,1.9,18.9,2,28.3c0,10.7-0.7,21.5-1.2,31.5c1.5-2.1,3.6-5.2,5.7-8.2
	c8.6-12.5,17.2-25,25.8-37.4c3.5-5.1,5.3-5.7,10.8-3.4c14.8,6.4,29.6,12.9,44.5,19.2c3.3,1.4,4.4,3.5,4.1,7
	c-1.5,14.3-1.5,14-15.6,16.9c-10.1,2-18.5,0.2-25.1-8.1c-0.9-1.1-2.2-1.9-3.3-2.8c-0.5,0.2-1,0.4-1.5,0.6c0.5,1.8,0.6,3.9,1.5,5.4
	c3.8,6.7,3.1,8.4-4.6,9.8c-0.9,0.2-1.8,0.6-2.9,2c5.8,2.4,11.7,4.4,17.3,7.2c3.2,1.6,6.9,3.9,8.6,6.8c10,16.7,19.4,33.8,29,50.7
	c1.7,3,1.3,5.2-1.5,7.3c-1.8,1.2-3.2,2.9-5.7,5.2c3.5,0.3,5.6,0.5,8,0.7c0,2.2,0.1,4.4,0,6.5c-1.6,20.3-3.3,40.5-4.8,60.8
	c-0.3,3.6-1.8,4.8-5.3,4.8c-14-0.2-28-0.3-42-0.1c-4.3,0-5-1.6-4.4-5.5c2.8-17.9,5.3-35.9,8.2-53.9c1.2-7.3,0.1-13.4-4.4-19.7
	c-14.5-20-28.4-40.3-42.4-60.6c-1.2-1.8-2.2-3.7-1.5-3.9c-4.7,4.8-9.3,9.7-13.6,14.2L96.3,110.9z M48.7,196.9
	c14.9,1.7,17-0.2,17-14.5c0-8,0-16,0-24c0-4.8,0.1-9.7-0.2-14.5c-0.3-4.2-1.9-8-6.8-8.6c-3.2-0.4-6.5,0-10,0V196.9z M48.5,43.5
	c0,16.4,0,32.3,0,48.2c0,0.7,0.8,1.9,1.5,2.2c5.6,2.4,13.2-1.1,13.5-7c0.5-12.4,0.3-24.9,0-37.4c0-3.6-2.6-5.7-6.2-6.1
	c-2.8-0.2-5.5,0-8.9,0L48.5,43.5z"></path>
<path class="st0" d="M0,489h51.9c3.4,31.1,6.9,62.1,10.3,93.2h1.1c0.8-5.8,1.6-11.7,2.3-17.5c2.7-23.7,5.5-47.3,8.1-71
	c0.4-3.7,1.4-5.1,5.4-5.1c14.6,0.2,29.3,0,44.3,0v212H86.1V592.1c-0.4,0-0.7,0-1.1,0c-1.4,9.9-2.8,19.8-4.2,29.7
	c-3.6,25.1-7.4,50.1-10.9,75.2c-0.5,3.2-1.6,4.3-4.7,4.1c-3.6-0.2-7.3,0-11.6,0c-5.3-36.7-10.6-73.2-15.9-109.7c-0.3,0-0.5,0-0.8,0
	v109.2H0V489L0,489z"></path>
<path class="st0" d="M523.8,3c11,0,21.6,0,32.2,0c4,0,8,0.2,12,0c3.6-0.2,4.5,1.1,4.5,4.6c-0.1,23.2,0,46.3,0,69.5
	c0,1.8,0,3.6,1,5.7c0.4-1.6,0.9-3.2,1.3-4.8c6.4-23.3,12.8-46.6,19-69.9c1-4,2.7-5.2,6.8-5.1c12.5,0.3,25,0,37.5,0.1
	c1.6,0,3.3,0.1,5.6,0.2c-0.6,2.6-1.1,4.8-1.7,6.9c-8.9,31.4-17.9,62.8-26.6,94.2c-0.8,2.7-0.7,5.9,0,8.7c9.5,40,19.3,80,28.9,119.9
	c0.5,1.9,0.8,3.8,1.4,6.4c-5.1,0-9.8,0-14.4,0c-10.8,0-21.7-0.1-32.5,0c-3.3,0-4.6-1-5.3-4.3c-6.1-26.8-12.4-53.5-18.6-80.3
	c-0.4-1.7-0.8-3.5-2.2-5.1v89.2H524V3H523.8z"></path>
<path class="st0" d="M502.3,93.6h-47.4c0-2.5,0-4.7,0-6.9c0-10.7,0.1-21.3-0.2-32c-0.2-6.7-3.2-9.5-8.6-9.1
	c-3.4,0.3-5.7,1.9-6.4,5.3c-0.5,2.6-0.7,5.3-0.7,7.9c0,41,0,82,0,123c0,3,0.3,6,1,8.9c0.8,3.5,3.6,5.2,7.1,5.2
	c3.6,0,6.1-1.7,6.9-5.3c0.6-2.8,0.9-5.6,0.9-8.4c0-13.8,0-27.7,0-41.5c0-2.1-0.6-4.6,2.9-4.5c15,0,29.9,0,45.2,0
	c0.1,2,0.3,3.4,0.3,4.9c0,14.8,0,29.7,0,44.5c0,11.1-1.6,21.9-6.7,32c-6.8,13.7-17.8,22.6-32.6,24.4c-12.1,1.5-24.7,1.6-36.7-0.3
	c-20.3-3.1-32.1-16.6-36.3-36.4c-1.7-7.8-2.6-15.8-2.7-23.8c-0.3-40.5-0.3-81,0-121.5c0-7.9,1.2-16,3.1-23.7
	c5-20.4,18.3-33,39.1-35.4c12.2-1.4,25.1-1.1,37.2,0.9C487.4,5.1,500,19.1,502,40.7C503.6,58,502.3,75.6,502.3,93.6L502.3,93.6z"></path>
<path class="st0" d="M276.3,90.5c3.3-27.6,6.3-53.7,9.4-79.8c1.1-9.3,0.3-7.6,8.5-7.6c16-0.1,32,0,48-0.1c3.9,0,5,1.3,5.5,5
	c8.1,62.6,16.3,125.2,24.5,187.8c1.9,14.3,3.7,28.7,5.6,43.4h-47.3c-1.3-11.1-2.5-22.3-3.8-33.9h-22.3c-1.1,11.4-2.3,22.6-3.4,33.8
	h-42.4c5.7-47.8,11.3-95.2,17.1-143.6c-8.5,6.9-16.3,13.3-24.1,19.7c-3.7,3.1-7.5,6.1-11.2,9.2c-2.7,2.3-5,2-7.3-0.7
	c-2.1-2.5-4.3-5-6.7-7.3c-3-2.7-3.1-5.2-0.4-8.1c10.6-11.3,21.1-22.7,31.6-34.1c2.7-2.9,4.6-1.6,6.5,0.8
	C267.9,79.8,271.7,84.6,276.3,90.5L276.3,90.5z M322.2,157.9c-2.1-22.4-4.1-44.3-6.2-66.2c-0.4,0-0.7,0-1.1,0
	c-2,22-4.1,43.9-6.1,66.2H322.2L322.2,157.9z"></path>
<path class="st0" d="M541.3,488.9c2.5-0.1,4.1-0.2,5.8-0.2c20.7,0,41.3,0,62,0c20.1,0,32.4,11.2,33.6,31.2c0.7,13.1,0.5,26.3,0,39.5
	c-0.4,11.3-5.6,20.4-15.5,26.3c0.1,0.5,0.1,0.9,0.3,1c11.7,7,16,17.4,15.7,30.7c-0.4,18.7-0.2,37.3,0,56c0,8.9,0.8,17.8,1.3,27.2
	c-0.3,0-1.5,0.3-2.8,0.3c-12,0-24,0.2-36-0.1c-1.7,0-4.4-1.9-4.9-3.5c-1.2-3.9-1.9-8.1-1.9-12.2c-0.2-19.8,0-39.6,0-59.5
	c0-10.6-1.6-12.1-13.1-11.4v86.4c-2.3,0.1-3.9,0.3-5.5,0.3c-10.8,0-21.7-0.2-32.5,0.1c-4.9,0.2-6.5-1-6.5-6.3
	c0.2-48.6,0.1-97.3,0.1-145.9c0-18,0-36,0-54L541.3,488.9L541.3,488.9z M585.5,573.2c9.8,1.8,13.1-0.6,13.2-10c0-9.1,0-18.3,0-27.4
	c0-10.1-2.4-12-13.2-10.1V573.2L585.5,573.2z"></path>
<path class="st0" d="M222.7,362.9c0,20.3,1,40.7-0.3,60.9c-1.2,18.5-8.8,35.2-27.5,41.8c-21.1,7.4-42.8,8-61.3-7.8
	c-10.5-9-13.7-21.8-14.9-35c-0.7-7.8-0.6-15.6-0.6-23.5c0.1-31.8-0.1-63.7,0.8-95.5c0.3-8.7,3.3-17.7,6.8-25.8
	c5.3-12.3,15.7-19.7,28.9-21.2c10.5-1.2,21.4-1.5,31.8,0c19.4,2.6,29.9,15.6,34.2,33.8c1.7,7.4,2.5,15.1,2.6,22.8
	c0.4,16.5,0.1,33,0.1,49.5C223.1,362.9,222.9,362.9,222.7,362.9L222.7,362.9z M162.8,362.3c0,15,0,30,0,44.9c0,4-0.1,8,0.3,12
	c0.5,5.1,3.6,7.6,8.3,7.3c4.7-0.3,7-3.7,7-10.8c0-35.3,0-70.6,0-105.9c0-2.1-0.3-4.3-0.8-6.4c-0.8-3.4-3.1-5.4-6.8-5.4
	c-3.8,0-6.5,1.6-7.2,5.4c-0.5,2.6-0.8,5.3-0.8,7.9c0,17,0,34,0,50.9V362.3z"></path>
<path class="st0" d="M432.9,466.2V258.6c1.9-0.1,3.5-0.3,5.1-0.3c19.7,0,39.3,0,59,0c22.1,0,32.6,8.6,35,30.5
	c1.4,12.8,0.7,26,0.1,38.9c-0.5,11-5.5,20.2-15.7,26.1c1.3,0.9,2.2,1.6,3.1,2.3c8.8,6,13,14.6,13.1,25.1c0.1,19.2,0,38.3,0.1,57.5
	c0,9.1,0.7,18.2,1.2,28c-3.8,0-8.4,0-13,0c-8,0-16-0.2-24,0c-4,0.2-6-1.4-6.6-5.1c-0.6-3.9-1.2-7.9-1.2-11.9
	c-0.1-19.5,0-39-0.1-58.5c0-9.2-3.2-11.5-13.1-9.3v84.2L432.9,466.2L432.9,466.2z M476,341.3c9.6,2,12.9-0.4,13-9.5
	c0.1-9,0-17.9,0-26.9c0-10.2-2.4-12.1-13-10V341.3z"></path>
<path class="st0" d="M645.4,322.9h-41.8c-0.1-2.3-0.3-4.4-0.3-6.5c-0.1-6.5-0.1-13-0.4-19.5c-0.2-3.6-2.9-5.7-6.1-5
	c-2.3,0.5-5.6,2.8-5.9,4.7c-1.8,11.2-0.9,21.9,8.2,30.4c9.5,8.9,18.8,18,28,27.2c13.9,13.9,21,30.7,20.3,50.4
	c-0.3,9.8-0.3,19.7-2.1,29.3c-3.7,19.9-16.7,32.4-36.7,34.8c-9.5,1.2-19.4,1.1-28.9-0.1c-20.4-2.6-32-14.1-34-34.6
	c-1.4-14.3-0.3-28.8-0.3-43.6H587c0,8.7,0,17.1,0,25.6c0,2.8,0.2,5.7,0.7,8.4c0.5,3.4,2.9,5.8,6.2,5.2c2.4-0.4,6-2.6,6.2-4.4
	c2.1-13.6,3.6-27.3-7.8-38.3c-8.5-8.2-17.1-16.4-25.5-24.7c-11.2-11-18.2-24.3-19.5-40c-0.8-9.4-1.1-19-0.4-28.4
	c1.8-22.2,15.2-35.9,37.4-37.6c10.9-0.8,22-0.5,32.8,1.2c14.5,2.3,23.8,11.8,25.9,26.2c1.9,12.7,1.5,25.8,2.2,39.3H645.4z"></path>
<path class="st0" d="M240.4,700.9c-13.3,0-26.4,0-39.5-0.2c-1,0-2.7-2.5-2.9-3.9c-1-7.6-1.8-15.2-2.3-22.9c-0.2-3.2-1.4-4.4-4.6-4.2
	c-5.1,0.3-11.7-1.5-14.9,1.1c-2.8,2.2-1.9,9.2-2.5,14.1c-0.5,4.1-0.6,8.3-1.3,12.4c-0.2,1.3-1.9,3.4-3,3.4
	c-11.5,0.2-22.9,0.2-35.2,0.2c0.2-2.8,0.3-5.2,0.6-7.5c7.9-66.8,15.9-133.6,23.8-200.4c0.4-3.5,1.7-4.4,5-4.4
	c15.2,0.1,30.3,0.1,45.5,0c3.4,0,4.4,1.1,4.9,4.5c4.1,32.7,8.5,65.4,12.7,98.1c4.6,35.2,9.2,70.3,13.8,105.5c0.2,1.3,0,2.6,0,4.3
	L240.4,700.9z M191.1,627.4c-1.9-20-3.7-39.3-5.6-58.5c-0.3,0-0.7,0-1,0c-1.8,19.4-3.7,38.8-5.5,58.5H191.1z"></path>
<path class="st0" d="M28.7,466.6c-9.3-69.5-18.6-138.5-28-208.4c2.9,0,5.3,0,7.7,0c11,0,22,0.2,33,0c3.8,0,5.1,1,5.4,4.9
	c3.3,38.4,6.8,76.7,10.2,115c0.2,1.9,0.5,3.8,1.4,5.6c3.8-41.6,7.5-83.2,11.3-125.2H111c-0.6,5.6-1.1,11-1.8,16.3
	c-5.9,47.1-11.8,94.2-17.7,141.3c-1.9,15.5-3.8,31.1-6,46.6c-0.2,1.4-2.1,3.6-3.2,3.6c-17.6,0.2-35.3,0.2-53.6,0.2L28.7,466.6z"></path>
<path class="st0" d="M518.9,614h-30.6v41.9h39.8v44.6h-83.2V488.9h81.6v43.5h-38.3v36h30.6V614H518.9z"></path>
<path class="st0" d="M418.3,301.4h-37.6V337H411c0,14.3,0,27.9-0.2,41.5c0,1-2.5,2.7-4,2.7c-7.3,0.3-14.7,0.3-22,0
	c-3.5-0.1-4.6,1.2-4.5,4.6c0.2,10.8,0.2,21.7,0,32.5c0,3.7,1.4,4.4,4.7,4.4c10-0.2,20,0,30-0.1c3.7,0,5.3,0.8,5.2,5
	c-0.3,12.8,0,25.6,0,38.7h-82V258.7h80.1V301.4L418.3,301.4z"></path>
<path class="st0" d="M234.8,532.5V489h92.6v43.4h-24.3v168.2h-43.8c0-1.8,0-3.3,0-4.7c0-52.5,0-105,0.1-157.4c0-5-1.5-6.3-6.2-6
	C247.3,532.9,241.3,532.5,234.8,532.5L234.8,532.5z"></path>
<path class="st0" d="M431.7,489.1v43.2h-24.4v168.2h-43.8v-168h-24.8c0-10.1,0-19.5,0-29c0-3.7,0-7.3,0-11c0-2.6,0.6-4,3.6-4
	c29.2,0,58.3,0,87.5,0.1c0.5,0,0.9,0.2,2,0.5H431.7z"></path>
<path class="st0" d="M325,301.3h-23.9v164.9h-43.2V301.5h-23.8v-42.9H325V301.3L325,301.3z"></path>
<path class="st0" d="M181.9,102.4c1.9,0,3.4-0.4,4.8-0.2c16.9,2.2,31.6,8.4,43,21.6c6.2,7.2,7.1,7,14.8,1.4
	c6.1-4.6,12.3-9.1,19.3-14.3c0.2,3.3,0.6,5.6,0.3,7.8c-2.3,21.6-8.7,41.7-23.2,58.5c-1.4,1.7-2.1,4.5-2.2,6.8c-0.4,17-0.7,34-0.8,51
	c0,3.6-0.9,5-4.8,4.9c-7.7-0.2-15.3,0-23,0.2c-3,0-4.5-0.5-4.1-4.2c1.7-19.7,3.2-39.5,4.7-59.3c0.1-1.5,0.3-3,0.5-4.5
	c0.5-2.9,1.6-4.7,5-3.2c1,0.4,2.4-0.1,3.6-0.2c-0.2-1.1-0.2-2.3-0.7-3.2c-9.7-15.3-19.3-30.7-29.1-45.9c-3.4-5.2-7.7-9.9-8.2-17.1
	L181.9,102.4z"></path>
<path class="st0" d="M217.5,110c-6.9-3.3-13.4-6.2-19.6-9.7c-0.7-0.4-0.3-4.4,0.8-5.9c7.1-9.9,14.5-19.5,21.8-29.2
	c3.7-4.9,7.4-9.8,11.1-14.8c2-2.6,3.8-3.2,6.5-0.5c4.9,5,10,9.7,15.1,14.5c2.9,2.7,2.8,5.4,0.2,8.2c-10.2,11.2-20.2,22.5-30.5,33.7
	c-1.4,1.5-3.4,2.4-5.3,3.7L217.5,110z"></path>
<path class="st0" d="M153.9,36c5.4-7.4,10.3-14,15.2-20.7c1.8-2.4,3.6-4.8,5.3-7.2c3.6-4.9,5.6-5.2,10.2-1.6
	c4.6,3.6,9.1,7.3,13.7,10.9c2.1,1.7,2.9,3.3,1.2,5.9c-4.8,7.2-9.2,14.7-14,21.8c-0.9,1.4-3.8,2.9-5,2.4c-8.2-3.1-16.3-6.8-24.3-10.3
	C155.6,36.9,155,36.6,153.9,36L153.9,36z"></path>
<path class="st0" d="M205.2,76.7c0-3.3-0.2-6.5,0-9.8c0.3-4.4-1.3-7.2-5.5-9c-3.2-1.4-6.1-3.3-9.1-5.1c-2.4-1.4-3-3.2-1.2-5.8
	c4.8-7.2,9.5-14.5,14.2-21.7c2.3-3.5,5.1-3.4,7.9-0.7c5.7,5.4,11.3,10.8,16.7,16.4c1.2,1.3,2.1,4.5,1.4,5.6
	c-7.5,10.4-15.5,20.6-23.3,30.8c-0.4-0.3-0.8-0.5-1.2-0.8L205.2,76.7z"></path>
<path class="st0" d="M198.3,83.7c-0.7,5.1-3,9.2-6.7,12.4c-0.9,0.8-2.6,1.5-3.6,1.1c-7.7-2.7-15.2-5.6-22.8-8.5
	c-0.5-0.2-0.7-1-1.1-1.6C164.4,87.1,198,83.7,198.3,83.7L198.3,83.7z"></path>
</svg>