<?xml version="1.0" standalone="no"?>
<!DOCTYPE svg PUBLIC "-//W3C//DTD SVG 20010904//EN"
 "http://www.w3.org/TR/2001/REC-SVG-20010904/DTD/svg10.dtd">
<svg version="1.0" xmlns="http://www.w3.org/2000/svg"
 width="1290.000000pt" height="1259.000000pt" viewBox="0 0 1290.000000 1259.000000"
 preserveAspectRatio="xMidYMid meet">

<g transform="translate(0.000000,1259.000000) scale(0.100000,-0.100000)"
fill="#000000" stroke="none">
<path d="M6422 10928 c-9 -9 -12 -81 -12 -265 0 -247 0 -253 21 -264 16 -8 28
-8 45 0 l24 11 0 245 c0 151 -4 254 -10 266 -12 21 -50 25 -68 7z"/>
<path d="M5494 10640 c-30 -12 -37 -39 -17 -69 15 -23 170 -225 261 -338 37
-48 53 -52 82 -23 17 17 19 24 9 43 -18 32 -289 381 -302 388 -7 4 -21 3 -33
-1z"/>
<path d="M7376 10636 c-24 -17 -306 -388 -306 -401 0 -19 37 -47 56 -43 14 2
251 296 311 385 26 39 -24 88 -61 59z"/>
<path d="M6310 10172 c-67 -22 -154 -76 -205 -128 -51 -53 -104 -166 -116
-250 -35 -248 144 -487 394 -526 340 -53 620 273 517 603 -39 127 -110 208
-239 272 -81 40 -88 42 -190 44 -81 2 -119 -1 -161 -15z"/>
<path d="M4985 10006 c-8 -13 -13 -30 -9 -39 3 -8 85 -51 182 -95 276 -124
282 -127 301 -115 20 13 26 56 9 70 -17 14 -442 203 -457 203 -6 0 -17 -11
-26 -24z"/>
<path d="M7670 9935 c-118 -53 -223 -104 -233 -114 -15 -15 -16 -22 -6 -44 7
-15 20 -27 30 -27 9 0 108 41 218 90 111 50 205 90 210 90 15 0 41 37 41 58 0
17 -25 42 -42 42 -2 0 -100 -43 -218 -95z"/>
<path d="M6267 9190 c-182 -14 -400 -59 -558 -116 -225 -80 -505 -259 -713
-453 -378 -356 -616 -916 -616 -1449 0 -604 187 -1081 584 -1490 330 -340 721
-538 1216 -617 123 -19 385 -19 533 0 334 44 610 155 967 390 130 86 307 261
424 420 120 161 267 440 320 604 89 275 123 586 96 862 -49 486 -243 912 -560
1229 -191 193 -459 372 -685 460 -33 13 -64 26 -70 30 -32 23 -327 93 -500
120 -86 13 -325 18 -438 10z m-776 -395 c-17 -20 -31 -45 -31 -56 0 -15 -13
-26 -49 -41 -46 -20 -48 -22 -47 -60 1 -39 1 -39 138 -128 75 -49 161 -103
191 -120 l54 -30 69 24 c38 13 132 48 209 77 123 46 149 53 210 52 39 0 86 -7
105 -15 l34 -14 -82 -12 c-90 -13 -124 -24 -400 -131 -158 -62 -185 -70 -205
-60 -12 7 -96 58 -187 114 -91 56 -202 124 -248 152 l-83 51 33 32 c88 85 261
199 302 200 15 0 13 -6 -13 -35z m232 10 c3 -14 -123 -96 -134 -89 -22 13 -1
39 56 70 61 33 75 36 78 19z m2028 -202 c82 -68 234 -228 301 -318 65 -86 183
-307 194 -363 5 -26 2 -29 -53 -49 -32 -12 -119 -44 -193 -72 -74 -28 -155
-59 -180 -68 -34 -12 -73 -45 -162 -137 -65 -66 -118 -127 -118 -136 0 -8 7
-35 16 -60 20 -57 20 -159 1 -197 -36 -68 -117 -113 -203 -113 -40 0 -44 -3
-49 -27 -16 -76 -29 -108 -61 -143 -37 -40 -104 -70 -158 -70 -28 0 -33 -5
-49 -50 -10 -27 -29 -62 -43 -79 -33 -40 -102 -65 -157 -58 -42 6 -42 6 -67
-41 -64 -120 -180 -124 -363 -13 -47 28 -97 51 -111 51 -32 0 -34 20 -5 46 20
18 21 18 57 -4 20 -12 84 -46 142 -75 123 -61 181 -68 225 -27 28 26 34 79 12
117 -6 12 -85 84 -174 158 -90 75 -163 140 -163 145 0 38 59 -2 309 -205 136
-110 181 -120 256 -54 29 25 35 38 35 69 0 21 -3 46 -6 54 -3 9 -74 72 -158
140 -221 182 -279 237 -271 258 10 24 18 19 222 -141 302 -235 281 -221 330
-221 61 0 97 22 122 73 34 71 29 93 -36 157 -75 72 -282 253 -355 310 -47 36
-58 50 -58 73 0 27 2 29 28 22 15 -3 34 -12 42 -19 8 -7 100 -86 204 -176 216
-186 251 -210 318 -210 78 0 138 70 138 160 0 78 -19 100 -294 333 -385 327
-535 451 -555 459 -10 3 -47 0 -82 -7 -35 -7 -107 -21 -159 -30 l-96 -17 -24
-46 c-34 -64 -183 -212 -243 -241 -79 -38 -149 -11 -160 62 -3 25 7 54 45 127
73 140 199 340 229 362 29 22 416 182 494 204 62 18 113 12 225 -27 99 -35
336 -99 365 -99 11 0 115 56 230 125 116 68 213 124 216 124 3 1 25 -15 50
-36z m-2985 -877 c234 -114 356 -185 417 -245 88 -85 90 -93 31 -163 -31 -38
-39 -96 -20 -143 9 -21 15 -39 14 -40 -43 -29 -54 -35 -59 -35 -4 0 -12 20
-18 45 -7 27 -19 49 -29 52 -9 4 -29 16 -45 27 -27 20 -28 20 -80 1 -30 -11
-71 -18 -99 -17 -97 6 -120 -36 -93 -165 20 -95 37 -117 92 -126 45 -8 68 4
81 43 12 32 39 40 49 14 3 -8 0 -33 -7 -55 -13 -37 -12 -42 8 -61 13 -13 35
-22 54 -22 31 -1 33 -3 45 -55 12 -58 34 -93 75 -124 25 -18 27 -18 63 -1 20
9 39 23 42 31 3 7 13 13 23 13 11 0 22 5 26 11 7 12 155 5 209 -11 17 -5 50
-11 75 -14 31 -5 62 -19 96 -45 28 -21 82 -48 120 -60 79 -26 110 -50 120 -95
9 -35 9 -31 0 -69 -5 -19 -3 -27 4 -22 19 12 114 -18 148 -47 39 -33 70 -42
121 -34 39 6 73 -10 99 -46 7 -10 24 -18 37 -18 28 0 55 -34 55 -68 0 -33 -16
-59 -75 -124 l-52 -56 1 -69 c2 -99 -23 -156 -78 -182 -23 -12 -49 -21 -57
-21 -36 0 -74 -37 -87 -86 -13 -50 -55 -114 -74 -114 -5 0 -19 -11 -29 -24
-12 -15 -32 -26 -52 -28 -30 -3 -32 -5 -29 -35 3 -30 -1 -36 -42 -60 -42 -26
-45 -30 -40 -60 5 -24 2 -34 -9 -39 -20 -7 -137 42 -205 86 -46 31 -52 38 -47
62 4 14 -1 63 -9 108 -9 45 -16 116 -16 158 0 108 -20 144 -119 215 -71 51
-84 65 -112 125 -18 37 -55 99 -81 139 -26 40 -48 77 -48 82 0 5 9 16 21 24
13 10 17 17 9 22 -8 5 -8 10 0 20 8 9 8 15 0 20 -16 10 -12 20 30 76 30 40 40
63 40 91 0 67 -12 82 -105 128 -47 23 -94 54 -103 67 -48 69 -65 82 -135 108
-185 70 -224 88 -258 121 -29 29 -38 45 -41 82 -3 35 -21 73 -67 150 l-63 102
7 68 c19 195 91 452 127 452 7 0 72 -29 144 -64z m829 -230 c41 -17 65 -60 65
-116 0 -48 -45 -112 -153 -218 -51 -51 -72 -65 -103 -69 -91 -12 -153 108
-110 212 17 40 83 114 149 167 54 42 93 48 152 24z m336 -144 c35 -39 47 -94
28 -132 -8 -15 -70 -87 -139 -159 -141 -149 -181 -173 -249 -153 -52 16 -73
43 -79 100 -4 46 -2 50 63 132 36 47 105 122 153 168 l87 83 54 -4 c46 -3 59
-9 82 -35z m2085 -237 c32 -64 63 -120 70 -126 24 -20 77 2 134 55 30 29 75
68 100 86 25 19 50 42 57 50 23 29 28 -4 27 -168 -1 -187 -18 -292 -78 -475
-78 -237 -184 -425 -379 -667 -174 -217 -316 -340 -473 -411 -74 -33 -96 -36
-114 -15 -13 17 -108 395 -117 467 -3 29 -1 49 6 53 7 5 11 -5 11 -30 0 -39
94 -424 111 -456 14 -27 48 -22 128 18 74 37 181 126 181 150 0 8 14 26 31 41
50 45 73 83 71 119 -2 29 8 42 90 123 l93 90 3 77 c3 43 -1 101 -7 129 -19 86
-15 94 197 379 85 115 122 197 122 273 0 28 -3 33 -17 29 -29 -9 -163 -36
-179 -36 -9 0 -14 11 -14 36 0 29 -9 46 -49 90 -27 29 -58 73 -70 97 -12 24
-32 54 -46 67 -31 29 -32 44 -2 58 47 23 54 16 113 -103z m-1897 30 c22 -26
31 -46 31 -71 0 -44 -7 -57 -65 -119 -26 -27 -64 -72 -85 -100 -50 -66 -77
-91 -122 -110 -57 -23 -93 -19 -133 16 -38 33 -46 78 -24 122 6 12 72 84 147
160 132 132 138 137 178 137 35 0 47 -6 73 -35z m-1597 -35 c9 -16 13 -32 9
-34 -13 -9 -51 24 -51 45 0 29 23 23 42 -11z m725 -110 c68 -46 78 -50 133
-50 53 0 60 -2 60 -20 0 -23 -31 -26 -93 -9 -26 7 -48 7 -67 1 -24 -9 -31 -7
-51 14 -13 14 -43 34 -66 44 -44 19 -53 36 -31 58 20 20 38 14 115 -38z m1004
-43 c39 -26 63 -85 54 -134 -12 -67 -197 -233 -259 -233 -38 0 -71 22 -91 60
-29 55 -20 79 61 165 41 44 91 99 111 123 42 49 72 54 124 19z m832 -378 c12
-6 31 -20 42 -30 11 -9 36 -19 55 -21 26 -2 34 -7 30 -18 -2 -8 -4 -42 -4 -75
1 -58 28 -134 54 -150 24 -15 51 -87 48 -128 l-3 -42 -21 36 c-12 19 -24 53
-28 74 -5 25 -22 55 -47 82 -22 24 -47 59 -56 78 -24 50 -98 77 -204 74 -73
-2 -80 0 -113 27 -49 40 -43 59 19 61 28 1 75 11 105 22 63 23 92 26 123 10z
m737 -134 c0 -22 -29 -75 -40 -75 -14 0 -12 64 2 78 17 17 38 15 38 -3z m-84
-190 c11 -62 -12 -63 -26 -1 -6 28 -5 36 6 36 7 0 16 -16 20 -35z m94 -171 c0
-14 -4 -23 -10 -19 -5 3 -10 15 -10 26 0 10 5 19 10 19 6 0 10 -12 10 -26z
m-540 -65 c-18 -42 -25 -28 -9 18 7 21 14 32 17 25 2 -7 -2 -26 -8 -43z"/>
<path d="M5423 6681 c-30 -25 -29 -32 2 -18 14 7 25 18 25 25 0 15 0 15 -27
-7z"/>
<path d="M5966 6364 c-4 -9 3 -18 17 -23 26 -10 29 -9 21 12 -8 22 -31 29 -38
11z"/>
<path d="M3400 4676 c-244 -68 -363 -322 -255 -543 72 -146 257 -239 425 -212
59 9 166 57 193 87 15 17 13 22 -34 89 l-51 71 -49 -30 c-114 -72 -250 -34
-311 85 -44 88 -2 204 92 255 63 33 159 29 218 -11 23 -15 43 -27 45 -27 6 0
110 141 106 144 -106 90 -255 126 -379 92z"/>
<path d="M6465 4675 c-112 -30 -209 -111 -259 -215 -28 -59 -31 -74 -31 -160
0 -84 3 -102 28 -153 121 -245 465 -310 652 -122 70 69 98 140 99 245 l1 85
-187 3 -188 2 0 -75 0 -75 85 0 c47 0 85 -3 85 -7 0 -5 -9 -22 -20 -40 -27
-44 -74 -66 -140 -66 -138 2 -226 90 -218 219 5 82 38 132 109 168 77 38 152
32 222 -17 16 -10 30 -18 31 -16 30 36 96 134 96 144 0 16 -90 64 -154 81 -64
17 -146 17 -211 -1z"/>
<path d="M4902 4663 c-20 -37 -332 -722 -332 -727 0 -3 46 -6 103 -6 l104 0
19 43 19 42 141 3 140 3 20 -43 19 -43 103 -3 c56 -1 102 1 102 6 0 5 -45 107
-101 228 -56 120 -131 284 -168 364 l-67 145 -46 3 c-37 2 -49 -1 -56 -15z
m87 -396 c51 -114 54 -107 -33 -107 -42 0 -76 2 -76 4 0 2 9 26 21 53 11 26
27 63 34 81 8 17 17 32 20 32 3 0 19 -28 34 -63z"/>
<path d="M5430 4305 l0 -375 95 0 95 0 0 175 c0 118 4 175 11 175 6 0 93 -81
194 -180 140 -137 190 -180 209 -180 18 0 27 7 31 23 3 12 4 180 3 372 l-3
350 -97 3 -98 3 0 -176 c0 -97 -4 -175 -9 -173 -4 2 -91 83 -191 181 -150 145
-188 177 -212 177 l-28 0 0 -375z"/>
<path d="M3872 4303 l3 -368 95 0 95 0 3 138 3 137 109 0 109 0 3 -137 3 -138
95 0 95 0 0 365 0 365 -97 3 -97 3 -3 -138 -3 -138 -105 0 -105 0 -3 138 -3
137 -99 0 -100 0 2 -367z"/>
<path d="M7062 4303 l3 -368 238 -3 237 -2 0 90 0 89 -142 3 -143 3 -3 53 -3
52 121 0 121 0 -3 82 -3 82 -90 -2 c-49 -2 -102 1 -117 7 -25 9 -28 16 -28 56
l0 45 145 0 145 0 0 90 0 90 -240 0 -240 0 2 -367z"/>
<path d="M7900 4580 l0 -90 90 0 90 0 0 -280 0 -280 95 0 95 0 0 280 0 280 90
0 90 0 0 90 0 90 -275 0 -275 0 0 -90z"/>
<path d="M8540 4300 l0 -370 95 0 95 0 0 140 0 140 115 0 115 0 0 -140 0 -140
95 0 95 0 0 370 0 370 -95 0 -94 0 -3 -137 -3 -138 -110 0 -110 0 -3 138 -3
137 -94 0 -95 0 0 -370z"/>
<path d="M9290 4300 l0 -370 235 0 235 0 0 90 0 90 -140 0 -140 0 0 55 0 55
115 0 115 0 0 80 0 80 -92 2 c-51 0 -97 2 -103 3 -5 2 -16 3 -22 4 -9 1 -13
18 -13 51 l0 50 140 0 140 0 0 90 0 90 -235 0 -235 0 0 -370z"/>
<path d="M2310 3290 l0 -530 135 0 135 0 0 249 c0 138 4 252 8 255 4 2 62 -48
127 -112 416 -407 411 -402 454 -402 l41 0 0 530 0 530 -135 0 -135 0 0 -250
c0 -158 -4 -250 -10 -250 -5 0 -87 76 -182 168 -380 369 -348 342 -395 342
l-43 0 0 -530z"/>
<path d="M3784 3772 c-12 -26 -118 -259 -238 -518 -119 -260 -216 -477 -216
-483 0 -8 45 -11 144 -11 l144 0 31 65 30 65 169 0 c174 0 232 -5 232 -22 0
-5 10 -32 21 -59 l21 -49 149 0 c82 0 149 2 149 4 0 3 -80 180 -179 393 -98
213 -207 450 -241 526 l-63 137 -66 0 -66 0 -21 -48z m146 -563 l49 -114 -101
-3 c-55 -1 -103 0 -106 2 -5 6 7 38 60 155 21 46 41 82 43 79 3 -3 28 -56 55
-119z"/>
<path d="M6889 3769 c-13 -29 -121 -264 -240 -523 -119 -259 -214 -475 -210
-479 4 -4 70 -6 146 -5 l139 3 30 60 31 60 193 3 193 2 30 -65 31 -65 144 0
c96 0 144 4 144 11 0 10 -83 193 -355 784 l-120 260 -66 3 -67 3 -23 -52z
m145 -557 c26 -56 46 -107 46 -112 0 -6 -43 -10 -106 -10 -58 0 -104 4 -102 8
44 109 103 231 109 225 4 -4 28 -54 53 -111z"/>
<path d="M4532 3289 l3 -524 135 0 135 0 3 218 c1 119 6 217 10 217 4 0 67
-99 141 -220 l134 -220 154 0 c102 0 153 4 153 11 0 6 -58 98 -130 205 -71
107 -130 198 -129 202 0 4 23 25 51 47 29 23 64 64 82 95 28 50 31 63 31 146
0 81 -3 97 -30 149 -36 71 -108 133 -192 166 -53 21 -78 23 -306 27 l-247 4 2
-523z m471 243 c32 -30 41 -74 23 -116 -22 -53 -50 -66 -138 -66 l-78 0 0 106
0 106 84 -3 c72 -3 88 -8 109 -27z"/>
<path d="M5520 3285 l0 -525 135 0 135 0 0 220 c0 126 4 220 9 220 5 0 34 -39
64 -87 29 -49 91 -148 136 -220 l83 -133 155 0 c135 0 154 2 149 15 -3 9 -65
104 -137 211 -72 108 -129 197 -127 198 78 47 108 78 149 156 35 67 34 185 -2
260 -51 106 -153 179 -281 200 -35 5 -154 10 -265 10 l-203 0 0 -525z m443
264 c37 -19 57 -52 56 -94 0 -75 -44 -105 -151 -105 l-78 0 0 105 0 105 76 0
c41 0 85 -5 97 -11z"/>
<path d="M7442 3683 l3 -128 125 -5 125 -5 3 -392 2 -393 135 0 135 0 0 395 0
395 125 0 125 0 0 130 0 130 -390 0 -391 0 3 -127z"/>
<path d="M8344 3797 c-2 -7 -3 -242 -2 -522 l3 -510 135 0 135 0 3 523 2 522
-135 0 c-101 0 -137 -3 -141 -13z"/>
<path d="M8733 3798 c3 -7 101 -222 217 -478 117 -256 223 -489 236 -517 l24
-53 60 0 60 0 24 53 c13 28 119 261 236 517 116 256 214 471 217 478 4 9 -28
12 -140 12 -104 0 -147 -4 -155 -12 -5 -7 -60 -131 -122 -276 -62 -144 -116
-264 -120 -267 -4 -2 -61 121 -126 275 l-119 280 -149 0 c-115 0 -147 -3 -143
-12z"/>
<path d="M9922 3288 l3 -523 333 -3 332 -2 0 130 0 130 -197 2 -198 3 -3 72
-3 73 163 2 163 3 3 112 3 113 -163 2 -163 3 -3 73 -3 72 201 0 200 0 0 130 0
130 -335 0 -335 0 2 -522z"/>
<path d="M4084 2486 c-10 -26 4 -48 28 -44 17 2 23 10 23 28 0 18 -6 26 -23
28 -13 2 -25 -3 -28 -12z"/>
<path d="M7417 2494 c-4 -4 -7 -18 -7 -31 0 -21 4 -24 28 -21 21 2 27 8 27 28
0 18 -6 26 -20 28 -12 2 -24 0 -28 -4z"/>
<path d="M7974 2486 c-10 -26 4 -48 28 -44 17 2 23 10 23 28 0 18 -6 26 -23
28 -13 2 -25 -3 -28 -12z"/>
<path d="M6135 2463 c-15 -61 -55 -267 -55 -285 0 -14 6 -19 22 -16 21 3 25
16 54 158 17 85 29 158 27 163 -10 18 -41 5 -48 -20z"/>
<path d="M7545 2478 c-4 -12 -65 -306 -65 -315 0 -1 11 -3 25 -3 14 0 25 2 25
4 0 2 14 69 30 149 17 81 30 153 30 162 0 18 -39 21 -45 3z"/>
<path d="M7847 2476 c-3 -7 -9 -35 -12 -60 -6 -38 -11 -46 -24 -41 -68 28
-116 23 -157 -16 -52 -48 -55 -141 -7 -179 29 -23 101 -28 121 -8 10 10 15 10
21 -1 5 -7 17 -11 27 -9 16 3 24 29 50 158 18 85 30 158 27 163 -7 12 -41 8
-46 -7z m-55 -143 c42 -38 -5 -133 -66 -133 -31 0 -66 32 -66 60 0 26 26 77
42 83 27 11 72 6 90 -10z"/>
<path d="M2605 2456 c-117 -54 -143 -221 -43 -280 57 -34 198 -13 198 30 0 21
-27 29 -46 13 -9 -7 -38 -13 -66 -13 -43 0 -54 4 -75 29 -21 24 -24 36 -20 74
4 36 13 52 41 78 30 28 43 33 84 33 26 0 57 -7 69 -15 18 -13 22 -12 37 4 15
16 15 19 -4 36 -27 25 -132 31 -175 11z"/>
<path d="M4955 2458 c-8 -22 -55 -260 -55 -279 0 -13 7 -19 23 -19 19 0 25 7
33 43 l9 42 71 6 c84 6 119 26 141 77 23 54 8 102 -37 124 -43 22 -178 25
-185 6z m156 -48 c25 -14 26 -71 0 -94 -12 -11 -38 -18 -72 -19 -49 -2 -54 0
-57 20 -2 12 2 40 8 62 11 40 12 41 56 41 25 0 54 -5 65 -10z"/>
<path d="M6775 2458 c-7 -20 -55 -268 -55 -284 0 -20 177 -20 225 0 54 23 74
89 38 128 -15 17 -15 19 0 31 24 18 38 63 27 91 -5 13 -22 28 -41 35 -45 16
-188 15 -194 -1z m175 -43 c15 -9 12 -41 -6 -59 -11 -11 -35 -16 -79 -16 l-63
0 8 34 c12 53 17 57 75 52 30 -3 59 -7 65 -11z m-4 -138 c14 -13 -7 -58 -32
-67 -40 -16 -134 -13 -134 4 0 43 14 75 34 78 28 4 124 -6 132 -15z"/>
<path d="M8846 2320 c-53 -83 -96 -153 -96 -155 0 -3 11 -5 24 -5 17 0 31 11
46 35 l22 35 83 0 83 0 6 -35 c6 -29 11 -35 33 -35 20 0 24 4 21 18 -3 10 -20
80 -38 155 -33 134 -34 137 -61 137 -24 0 -38 -17 -123 -150z m132 27 c18 -78
19 -77 -43 -77 -32 0 -55 4 -55 10 0 15 68 120 78 120 4 0 13 -24 20 -53z"/>
<path d="M3445 2435 c-3 -8 -7 -22 -10 -30 -2 -8 -14 -15 -25 -15 -13 0 -20
-7 -20 -20 0 -11 7 -20 15 -20 18 0 18 -10 4 -83 -10 -49 -9 -60 5 -82 15 -22
23 -26 59 -23 30 2 43 8 45 21 3 12 -3 17 -21 17 -40 0 -47 18 -34 85 11 57
14 60 43 63 22 2 34 9 37 23 4 16 0 19 -24 19 -26 0 -29 4 -29 30 0 23 -4 30
-20 30 -11 0 -23 -7 -25 -15z"/>
<path d="M2893 2389 c-40 -12 -80 -59 -89 -106 -8 -44 16 -95 52 -112 60 -27
172 0 143 35 -8 10 -16 11 -29 4 -31 -16 -79 -11 -100 10 -35 35 -24 40 75 40
l95 0 0 38 c0 49 -22 79 -68 92 -20 5 -39 10 -42 9 -3 0 -19 -5 -37 -10z m81
-45 c9 -3 16 -15 16 -25 0 -17 -8 -19 -65 -19 -36 0 -65 3 -65 7 0 32 69 54
114 37z"/>
<path d="M3215 2391 c-11 -5 -37 -7 -57 -4 -21 3 -38 3 -38 0 0 -2 -9 -49 -20
-102 -25 -123 -25 -127 2 -123 19 3 25 14 39 78 19 82 42 110 89 110 46 0 55
-20 41 -100 -15 -91 -15 -92 11 -88 18 2 25 13 35 53 18 79 16 139 -5 158 -23
21 -70 29 -97 18z"/>
<path d="M3653 2389 c-31 -9 -82 -59 -84 -82 0 -7 -2 -21 -4 -32 -13 -61 41
-115 114 -115 38 0 91 17 91 29 -1 23 -18 31 -43 20 -46 -21 -117 6 -117 45 0
3 43 6 95 6 l95 0 0 36 c0 48 -15 73 -55 90 -39 16 -47 16 -92 3z m91 -55 c33
-32 21 -38 -74 -34 -56 2 -61 7 -31 31 28 23 84 25 105 3z"/>
<path d="M3968 2386 c-21 -8 -38 -10 -38 -5 0 5 -11 9 -25 9 -14 0 -25 -1 -25
-3 0 -1 -9 -49 -20 -107 -25 -129 -25 -120 4 -120 21 0 25 7 35 61 7 34 17 71
23 84 10 23 46 45 73 45 9 0 15 10 15 25 0 14 -1 25 -2 25 -2 -1 -20 -7 -40
-14z"/>
<path d="M4285 2390 c-11 -4 -36 -6 -55 -3 l-35 5 -19 -99 c-11 -54 -21 -106
-24 -115 -3 -14 2 -18 22 -18 20 0 27 6 31 28 20 95 29 119 47 140 21 22 62
29 84 14 21 -13 21 -40 -2 -154 -5 -25 -3 -28 20 -28 14 0 26 1 26 3 0 1 7 38
15 82 18 95 10 128 -37 144 -36 13 -46 13 -73 1z"/>
<path d="M4533 2381 c-128 -59 -74 -240 61 -203 48 12 53 10 38 -22 -16 -36
-69 -50 -120 -33 -29 10 -44 11 -51 4 -19 -19 -12 -35 20 -46 70 -24 153 -4
185 45 15 22 63 211 64 252 0 16 -39 15 -46 -2 -4 -11 -12 -10 -42 5 -45 23
-56 23 -109 0z m111 -47 c51 -50 -32 -147 -97 -113 -45 24 -50 67 -12 104 28
29 85 34 109 9z"/>
<path d="M5311 2393 c-62 -12 -101 -64 -101 -133 0 -59 44 -100 105 -100 59 0
97 15 93 38 -4 17 -9 17 -71 5 -31 -6 -77 19 -77 42 0 11 20 15 93 17 l92 3 3
32 c6 60 -66 110 -137 96z m80 -59 c22 -27 5 -38 -57 -35 -32 1 -60 4 -62 5
-1 2 0 10 4 19 12 33 90 41 115 11z"/>
<path d="M5573 2389 c-47 -14 -86 -69 -87 -125 -1 -39 3 -50 32 -75 26 -24 41
-29 82 -29 43 0 54 4 90 38 37 36 40 43 40 91 0 43 -4 56 -25 75 -14 13 -39
26 -56 30 -36 7 -34 7 -76 -5z m91 -55 c25 -24 20 -81 -9 -109 -70 -71 -163
27 -95 100 27 29 80 34 104 9z"/>
<path d="M5905 2390 c-11 -4 -36 -6 -56 -3 l-36 5 -28 -148 c-15 -82 -28 -153
-29 -158 -2 -15 36 -19 45 -5 4 7 11 35 14 61 7 52 10 55 39 33 30 -23 98 -19
131 7 32 25 55 74 55 118 0 59 -81 113 -135 90z m67 -57 c28 -25 23 -70 -11
-104 -35 -34 -72 -38 -101 -9 -65 65 44 175 112 113z"/>
<path d="M6284 2386 c-47 -21 -76 -68 -76 -124 0 -40 5 -51 31 -74 24 -22 41
-28 76 -28 46 0 95 14 95 27 -1 26 -16 31 -57 20 -49 -13 -87 0 -96 32 -5 20
-1 21 88 21 102 0 107 3 95 64 -10 57 -94 90 -156 62z m101 -52 c29 -29 13
-39 -56 -36 -35 2 -65 5 -67 7 -2 2 6 13 17 24 25 25 83 28 106 5z"/>
<path d="M8197 2394 c-4 -4 -30 -7 -58 -8 l-52 -1 -18 -90 c-24 -117 -24 -135
0 -135 21 0 22 3 41 90 16 69 42 100 86 100 48 0 56 -22 40 -108 -7 -39 -11
-74 -8 -77 12 -12 41 -4 46 13 15 53 28 144 22 166 -9 35 -79 70 -99 50z"/>
<path d="M8434 2386 c-66 -29 -97 -101 -69 -160 25 -52 84 -69 148 -41 23 10
23 -16 -1 -45 -18 -22 -34 -24 -137 -17 -47 3 -44 -27 4 -43 75 -24 160 3 188
62 12 25 53 205 53 234 0 20 -37 18 -44 -2 -6 -15 -8 -15 -24 -1 -25 23 -82
29 -118 13z m97 -46 c13 -7 19 -21 19 -44 0 -69 -91 -107 -132 -56 -50 61 39
139 113 100z"/>
<path d="M9206 2390 c-91 -28 -123 -147 -54 -205 39 -33 113 -35 152 -4 24 19
26 23 13 37 -13 13 -18 13 -38 -2 -53 -37 -109 -8 -109 56 0 63 61 96 124 67
30 -14 58 -5 50 15 -7 17 -65 46 -91 45 -10 0 -31 -5 -47 -9z"/>
<path d="M9465 2390 c-17 -5 -44 -23 -60 -40 -26 -27 -30 -39 -30 -87 0 -49 3
-57 30 -79 21 -17 43 -24 73 -24 48 0 102 23 102 44 0 22 -29 28 -53 11 -30
-21 -63 -19 -88 6 -27 27 -20 85 12 112 24 20 71 22 98 5 20 -12 51 -5 51 11
0 31 -85 56 -135 41z"/>
<path d="M9716 2390 c-96 -30 -126 -166 -47 -213 34 -20 99 -22 136 -5 27 12
29 16 16 37 -6 10 -13 11 -29 2 -45 -24 -101 -9 -115 32 -6 15 2 17 87 17 104
0 111 5 94 67 -14 53 -80 82 -142 63z m88 -56 c19 -19 21 -34 4 -35 -52 -3
-120 0 -125 5 -4 3 2 15 12 26 22 25 86 27 109 4z"/>
<path d="M9970 2389 c-39 -16 -60 -40 -60 -70 0 -32 26 -53 80 -64 40 -9 54
-24 38 -42 -12 -15 -66 -17 -102 -3 -21 8 -27 6 -36 -10 -9 -17 -7 -22 15 -30
35 -13 108 -13 138 1 33 15 49 52 37 83 -6 18 -21 28 -52 36 -67 17 -70 19
-66 37 3 15 15 18 62 19 42 1 61 6 67 17 8 13 2 18 -28 26 -45 13 -60 13 -93
0z"/>
<path d="M10195 2388 c-38 -14 -54 -35 -55 -70 0 -32 27 -53 83 -63 31 -6 38
-11 35 -29 -2 -17 -11 -22 -45 -24 -23 -2 -51 2 -62 7 -14 8 -22 7 -32 -5 -21
-25 14 -44 81 -44 47 0 62 4 84 25 47 43 30 85 -44 110 -37 12 -50 21 -48 33
3 13 15 17 58 17 50 0 69 8 70 27 0 7 -67 28 -85 27 -5 0 -23 -5 -40 -11z"/>
<path d="M4065 2378 c-11 -29 -41 -208 -37 -213 14 -13 42 -3 47 18 16 69 35
171 35 188 0 22 -38 27 -45 7z"/>
<path d="M7079 2333 c-19 -95 -17 -132 10 -154 25 -21 81 -25 111 -9 13 7 21
7 25 0 3 -5 15 -10 25 -10 20 0 28 21 50 135 6 33 14 68 17 78 4 15 0 18 -23
15 -27 -3 -29 -8 -42 -73 -14 -77 -43 -115 -87 -115 -44 0 -54 31 -39 113 8
40 14 73 14 75 0 1 -11 2 -24 2 -22 0 -26 -7 -37 -57z"/>
<path d="M7395 2378 c-2 -7 -11 -49 -20 -93 -8 -44 -17 -90 -20 -102 -5 -19
-1 -23 20 -23 27 0 25 -4 50 118 20 98 19 112 -5 112 -11 0 -23 -6 -25 -12z"/>
<path d="M7955 2368 c-16 -71 -35 -172 -35 -189 0 -15 6 -20 22 -17 19 3 24
14 40 93 10 50 20 100 23 113 4 18 1 22 -20 22 -17 0 -26 -7 -30 -22z"/>
<path d="M6485 2216 c-25 -18 -15 -51 15 -51 20 0 26 6 28 26 4 31 -18 44 -43
25z"/>
<path d="M10355 2216 c-25 -18 -15 -51 15 -51 20 0 26 6 28 26 4 31 -18 44
-43 25z"/>
<path d="M5046 1944 c-10 -26 19 -52 42 -38 9 6 17 20 17 30 0 26 -50 32 -59
8z"/>
<path d="M7803 1944 c-8 -21 19 -46 40 -38 9 3 17 17 17 30 0 19 -5 24 -25 24
-14 0 -28 -7 -32 -16z"/>
<path d="M4473 1779 l-30 -151 113 4 c95 2 117 6 140 24 94 69 106 197 25 251
-29 20 -47 23 -126 23 l-92 0 -30 -151z m202 97 c39 -17 51 -46 42 -103 -11
-66 -67 -103 -157 -103 -43 0 -50 3 -50 20 0 17 26 155 36 188 5 17 86 16 129
-2z"/>
<path d="M6135 1918 c-5 -18 -55 -269 -55 -280 0 -6 48 -8 114 -6 105 3 117 5
140 27 30 28 36 90 11 111 -13 11 -12 16 10 42 32 38 32 71 -1 97 -23 18 -41
21 -121 21 -66 0 -95 -4 -98 -12z m173 -37 c21 -13 10 -54 -18 -68 -14 -7 -46
-13 -72 -13 -43 0 -48 2 -48 23 0 59 9 67 69 67 31 0 62 -4 69 -9z m-14 -127
c21 -8 20 -43 -1 -66 -13 -14 -31 -18 -86 -18 l-69 0 7 37 c4 21 9 41 11 45 6
9 116 11 138 2z"/>
<path d="M6840 1910 c0 -17 7 -20 50 -20 39 0 50 -4 50 -16 0 -32 -33 -160
-46 -181 -17 -27 -64 -31 -87 -8 -13 12 -17 12 -31 -4 -15 -16 -15 -19 5 -37
15 -13 36 -19 70 -19 76 0 96 26 125 166 13 63 24 120 24 127 0 8 -23 12 -80
12 -73 0 -80 -2 -80 -20z"/>
<path d="M7614 1885 c-4 -16 -13 -25 -25 -25 -23 0 -25 -28 -4 -44 11 -9 12
-20 4 -58 -16 -73 -9 -110 24 -126 36 -18 77 -8 77 18 0 13 -8 20 -27 22 -26
3 -28 6 -26 49 4 74 17 99 53 99 23 0 30 4 30 20 0 16 -7 20 -30 20 -27 0 -30
2 -24 25 5 22 3 25 -20 25 -19 0 -27 -6 -32 -25z"/>
<path d="M4842 1813 c-33 -155 -35 -175 -22 -183 25 -16 37 1 50 72 13 75 31
99 78 108 18 4 28 12 30 28 4 25 -11 28 -52 12 -17 -6 -26 -6 -26 0 0 6 -11
10 -24 10 -21 0 -26 -7 -34 -47z"/>
<path d="M5036 1852 c-2 -4 -11 -44 -20 -89 -8 -45 -18 -94 -22 -108 -5 -22
-3 -25 19 -25 16 0 28 7 31 18 7 25 36 182 36 198 0 15 -35 20 -44 6z"/>
<path d="M5130 1853 c0 -8 23 -111 42 -186 8 -35 12 -38 39 -35 27 3 39 16
100 116 68 111 69 113 43 110 -21 -2 -37 -18 -74 -77 -25 -41 -51 -76 -58 -79
-6 -2 -18 28 -28 77 -16 73 -20 81 -41 81 -13 0 -23 -3 -23 -7z"/>
<path d="M5433 1840 c-39 -23 -63 -67 -63 -113 0 -73 76 -120 159 -97 35 9 42
15 39 33 -2 14 -9 20 -18 18 -51 -15 -96 -12 -114 8 -29 32 -12 41 85 41 l89
0 0 36 c0 53 -44 94 -102 94 -25 0 -56 -8 -75 -20z m108 -30 c10 -6 19 -20 19
-30 0 -18 -7 -20 -65 -20 -50 0 -65 3 -65 14 0 35 70 58 111 36z"/>
<path d="M5686 1838 c-17 -76 -36 -182 -36 -194 0 -8 10 -14 24 -14 20 0 24 6
30 43 14 90 26 116 57 133 39 20 77 11 84 -19 3 -12 -1 -53 -8 -90 l-15 -68
26 3 c24 3 28 10 40 68 15 75 10 130 -15 147 -20 16 -87 17 -114 3 -13 -7 -19
-7 -19 0 0 5 -11 10 -25 10 -17 0 -26 -6 -29 -22z"/>
<path d="M6420 1856 c0 -1 11 -48 25 -104 14 -56 25 -110 25 -120 0 -31 -35
-55 -69 -49 -29 6 -49 -12 -35 -34 7 -12 71 -11 95 2 17 9 161 218 198 288 10
19 9 21 -13 21 -20 0 -34 -15 -77 -86 -28 -47 -55 -82 -58 -77 -4 4 -15 43
-25 86 -16 70 -20 77 -42 77 -13 0 -24 -2 -24 -4z"/>
<path d="M7066 1843 c-15 -54 -28 -145 -22 -167 9 -36 59 -60 105 -50 20 4 50
7 67 5 31 -2 32 -2 48 71 9 40 20 92 23 116 5 40 4 42 -19 42 -23 0 -26 -6
-37 -70 -16 -86 -40 -120 -86 -120 -57 0 -64 47 -29 173 4 13 -1 17 -20 17
-15 0 -27 -7 -30 -17z"/>
<path d="M7385 1849 c-29 -17 -45 -40 -45 -64 0 -23 28 -55 49 -55 6 0 27 -7
46 -14 26 -11 33 -19 28 -32 -5 -14 -17 -16 -74 -12 -50 4 -69 2 -73 -8 -7
-20 15 -32 69 -39 97 -12 164 57 110 111 -13 13 -34 24 -45 24 -29 0 -60 18
-60 35 0 19 35 28 85 21 34 -6 44 -4 49 10 4 9 4 19 1 22 -11 12 -121 12 -140
1z"/>
<path d="M7790 1856 c0 -2 -9 -48 -20 -101 -25 -122 -25 -125 3 -125 21 0 25
8 45 108 12 59 22 110 22 115 0 4 -11 7 -25 7 -14 0 -25 -2 -25 -4z"/>
<path d="M7954 1850 c-11 -4 -33 -22 -47 -40 -21 -24 -27 -42 -27 -79 0 -52
22 -85 68 -102 53 -20 164 23 135 52 -10 10 -18 10 -38 1 -36 -17 -81 -15 -99
4 -25 24 -20 81 9 109 27 28 58 31 98 10 27 -14 57 -11 57 5 0 5 -12 18 -26
29 -28 22 -90 27 -130 11z"/>
<path d="M8189 1837 c-105 -71 -54 -229 69 -213 54 7 83 22 76 40 -4 11 -19
13 -60 9 -44 -5 -58 -2 -74 12 -41 37 -27 45 75 45 l95 0 0 36 c0 82 -103 123
-181 71z m112 -27 c10 -6 19 -20 19 -30 0 -18 -7 -20 -65 -20 -50 0 -65 3 -65
14 0 35 70 58 111 36z"/>
<path d="M8394 1668 c-9 -28 20 -52 47 -37 11 5 19 14 19 19 0 42 -53 57 -66
18z"/>
</g>
</svg>
